<svg width="133" height="26" viewBox="0 0 133 26" fill="none" xmlns="http://www.w3.org/2000/svg">
<g clip-path="url(#clip0_419_3789)">
<path d="M115.966 0H99.9385H99.9008L97.8613 2.3985H104.613L100.703 13.1993H106.164L109.622 3.64758L107.343 2.3985H113.857L115.966 0Z" fill="white"/>
<path d="M98.7317 0H82.6663L80.5558 2.3985H81.798L77.8926 13.1993H83.3537L85.5288 7.18792H87.9356L89.2047 13.1885H94.6658L93.3924 7.18792H96.1235L98.7317 0ZM86.3929 4.78942L86.8066 3.64758L84.528 2.3985H92.3926L91.5307 4.78942H86.3929Z" fill="white"/>
<path d="M64.3583 0L62.2489 2.3985H63.4911L59.5781 13.1993H75.6468L80.4248 0H64.3583ZM71.5065 9.55175L73.784 10.8008H65.9097L68.4953 3.65083L66.2211 2.3985H74.0954L71.5065 9.55175Z" fill="white"/>
<path d="M25.4997 0H9.43429H9.43321L7.32377 2.3985H8.56595L4.65625 13.1993H20.7217L22.4411 8.44783H16.9811L16.1289 10.8008H10.9857L11.8368 8.44783L9.55819 7.19983H16.1473L17.0145 4.80133H13.1565L13.5745 3.64758L11.296 2.3985H19.1703L18.7178 3.64758H24.1789L25.4997 0Z" fill="white"/>
<path d="M62.1149 0H46.0495L43.939 2.3985H45.1812L41.2715 13.1993H46.7326L48.911 7.18792H59.5088L62.1149 0ZM49.7728 4.78942L50.1865 3.64758L47.9123 2.3985H55.7769L54.915 4.78942H49.7728Z" fill="white"/>
<path d="M42.4866 3.64758L43.8064 0H27.7409L25.6304 2.3985H26.8726L26.4201 3.64758L35.2878 8.44783L34.8794 9.57558L37.116 10.8008H29.2923L30.1434 8.44783H24.6823L22.9629 13.1993H39.0283L40.7488 8.44783L29.6026 2.3985H37.4769L37.0255 3.64758H42.4866Z" fill="white"/>
<path d="M132.031 0H115.966L114.646 3.64758L123.512 8.44783L123.105 9.57558L125.342 10.8008H117.517L118.369 8.44783H112.908L111.188 13.1993H127.254L128.973 8.44783L117.828 2.3985H125.703L125.25 3.64758H130.711L132.031 0Z" fill="white"/>
<path d="M22.4662 15.4538L20.792 17.3637H21.781L19.3538 24.05L18.6621 25.9599H31.4578L35.2619 15.4516L22.4662 15.4538ZM28.1568 23.0598L29.971 24.05H23.7009L25.7618 18.3538L23.9476 17.3593H30.2178L28.1568 23.0598Z" fill="white"/>
<path d="M126.447 15.4537H113.655L111.975 17.3637H112.964L109.852 25.9642H114.2L115.932 21.177H124.371L126.447 15.4537ZM116.623 19.2671L116.952 18.3582L115.138 17.3637H121.402L120.713 19.2671H116.623Z" fill="white"/>
<path d="M65.3041 15.4537L63.6235 17.3637H64.6125L61.5 25.9642H71.1574L74.8106 24.5299L78.0955 15.4537H65.3041ZM73.061 17.3637L70.6348 24.05H66.5409L68.6019 18.3538L66.7876 17.3593L73.061 17.3637Z" fill="white"/>
<path d="M96.2423 18.3582L97.2938 15.4537H84.5014L82.8218 17.3637H83.8108L80.6973 25.9642H93.4897L94.859 22.1812H90.5108L89.8321 24.0543H85.7371L87.7991 18.3582L85.9849 17.3637H92.254L91.8942 18.3582H96.2423Z" fill="white"/>
<path d="M111.87 15.4537H107.522L104.769 23.0598L106.582 24.0543H100.313L103.426 15.4537H99.0776L97.398 17.3637H98.387L95.2734 25.9642H108.066L111.87 15.4537Z" fill="white"/>
<path d="M57.63 22.1802L56.9512 24.0543H52.8562L55.9687 15.4537H51.6205V15.4548V15.4537L49.9409 17.3637H50.9299L47.8164 25.9642H60.6088L61.9771 22.1802H57.63Z" fill="white"/>
<path d="M37.0444 15.4537L35.3648 17.3637H36.3538L33.2402 25.9642H37.5884L39.324 21.177H41.2406L42.2544 25.9545H46.6026L45.5888 21.177H47.7597L49.8357 15.4537H37.0444ZM44.1031 19.2671H40.0092L40.3378 18.3582L38.5246 17.3637H44.7883L44.1031 19.2671Z" fill="white"/>
<path d="M16.3542 15.4537L13.5886 23.0945L15.3975 24.0857H11.324L14.4494 15.4537H10.0861L7.30335 23.0912L9.1176 24.0857H5.04415L8.18031 15.4537H3.81705L2.131 17.3702H3.12323L0 26H4.87069L9.14346 24.0836L12.5371 26H16.7722L20.5892 15.4537H16.3542Z" fill="white"/>
</g>
<defs>
<clipPath id="clip0_419_3789">
<rect width="132.031" height="26" fill="white"/>
</clipPath>
</defs>
</svg>
